<?xml version="1.0" standalone="no"?><!DOCTYPE svg PUBLIC "-//W3C//DTD SVG 1.1//EN" "http://www.w3.org/Graphics/SVG/1.1/DTD/svg11.dtd"><svg t="1663254845505" class="icon" viewBox="0 0 1024 1024" version="1.1" xmlns="http://www.w3.org/2000/svg" p-id="1752" xmlns:xlink="http://www.w3.org/1999/xlink" width="200" height="200"><path d="M47.4 57.08m314.11 0l271.78 0q314.11 0 314.11 314.11l0 271.78q0 314.11-314.11 314.11l-271.78 0q-314.11 0-314.11-314.11l0-271.78q0-314.11 314.11-314.11Z" fill="#D6EFAF" p-id="1753"></path><path d="M900.71 766.42V288.17a15.41 15.41 0 0 0-15.41-15.41H215.82a15.41 15.41 0 0 0-15.42 15.41v478.25a15.42 15.42 0 0 0 15.42 15.42H428.5l-115.09 109.8h478.35l-105.85-109.8H885.3a15.41 15.41 0 0 0 15.41-15.42z" fill="#606060" p-id="1754"></path><path d="M375.22 736.15L259.4 846.64h478.36L631.25 736.15H375.22z" fill="#FFD4B7" p-id="1755"></path><path d="M146.4 227.76m15.42 0l669.47 0q15.42 0 15.42 15.42l0 478.24q0 15.42-15.42 15.42l-669.47 0q-15.42 0-15.42-15.42l0-478.24q0-15.42 15.42-15.42Z" fill="#F8E9AC" p-id="1756"></path><path d="M206.5 270.61m15.42 0l549.27 0q15.42 0 15.42 15.42l0 335.76q0 15.42-15.42 15.42l-549.27 0q-15.42 0-15.42-15.42l0-335.76q0-15.42 15.42-15.42Z" fill="#68BCAC" p-id="1757"></path><path d="M372.57 733.5l-101.48 96.81L256.75 844c-2.37 2.26-0.54 6.4 2.66 6.4h458.77c6.21 0 12.59 0.42 18.79 0h0.79a3.79 3.79 0 0 0 2.65-6.4l-57-59.19-36.64-38-10.66-11.06c-1.61-1.66-2.63-3.06-5.1-3.33-6.77-0.73-14 0-20.85 0H448.49c-24 0-48.14-0.77-72.14 0h-1.13c-4.83 0-4.84 7.5 0 7.5h256l-2.65-1.1 93.23 96.71 13.28 13.78 2.65-6.4H266.57c-2 0-4.44-0.41-6.37 0a4.17 4.17 0 0 1-0.79 0l2.65 6.4 101.47-96.81 14.34-13.68c3.5-3.35-1.81-8.65-5.3-5.32zM210.25 621.79V292.33c0-2-0.09-4.05 0-6.06 0.31-6.93 5.11-11.62 12-11.91 14.65-0.63 29.46 0 44.12 0h456.25c15.9 0 31.81-0.2 47.71 0 6.86 0.08 12.19 4.59 12.53 11.67 0.07 1.45 0 2.92 0 4.37v268.86c0 20.71 0.88 41.64 0 62.34-0.43 10.23-8.67 11.86-16.61 11.86H228c-8.11 0-17.25-0.74-17.72-11.67-0.2-4.81-7.7-4.83-7.5 0A19.56 19.56 0 0 0 222.11 641h548.88a19.54 19.54 0 0 0 19.32-19.17c0.21-5.55 0-11.14 0-16.68V290c0-1.77 0.08-3.57-0.05-5.34-0.79-10.29-9.28-17.53-19.35-17.83-4.41-0.14-8.85 0-13.26 0H234.41c-4.12 0-8.26-0.15-12.38 0A19.53 19.53 0 0 0 202.75 286c-0.06 1.53 0 3.08 0 4.62v331.17c0 4.83 7.5 4.84 7.5 0z" fill="#FFFFFF" p-id="1758"></path><path d="M150.15 721.42V246.47c0-4.95 0.44-9.75 5.07-12.93 3-2 6.06-2 9.4-2h598.32c22.28 0 44.55-0.16 66.83 0 7 0.05 12.79 4.13 13.19 11.67 0.09 1.71 0 3.45 0 5.16v458.11c0 7.94 2.2 20.74-6.14 25.22-4.87 2.62-12.87 1.39-18.17 1.39H171c-8.81 0-20.29 1-20.83-11.67-0.2-4.81-7.7-4.83-7.5 0 0.47 11.08 8.86 19 19.88 19.17h657.27c7.18 0 15.57 1 21.86-3.06 10.33-6.7 8.78-18.52 8.78-29V247.89a54.6 54.6 0 0 0-0.22-7.35c-1.36-10-10-16.41-19.73-16.53-6.72-0.09-13.45 0-20.18 0H163.94c-12.72 0-21.29 8.66-21.29 21.36v476.05c0 4.83 7.5 4.84 7.5 0z" fill="#FFFFFF" p-id="1759"></path></svg>